<svg width="35" height="35" viewBox="0 0 35 35" fill="none" xmlns="http://www.w3.org/2000/svg">
<g clip-path="url(#clip0_225_958)">
<mask id="mask0_225_958" style="mask-type:luminance" maskUnits="userSpaceOnUse" x="1" y="4" width="33" height="27">
<path d="M1.91666 4.04166V28.8333C1.91666 30.0021 2.87291 30.9583 4.04166 30.9583H30.9583C32.1271 30.9583 33.0833 30.0021 33.0833 28.8333V4.04166H1.91666ZM21.0417 9.70832H13.9583C13.1756 9.70832 12.5417 9.07436 12.5417 8.29166C12.5417 7.50895 13.1756 6.87499 13.9583 6.87499H21.0417C21.8244 6.87499 22.4583 7.50895 22.4583 8.29166C22.4583 9.07436 21.8244 9.70832 21.0417 9.70832Z" fill="white"/>
</mask>
<g mask="url(#mask0_225_958)">
<path d="M1.91666 4.04166H33.0833V30.9583H1.91666V4.04166Z" fill="#EEEEEE"/>
</g>
<mask id="mask1_225_958" style="mask-type:luminance" maskUnits="userSpaceOnUse" x="1" y="4" width="33" height="27">
<path d="M1.91666 4.04166V28.8333C1.91666 30.0021 2.87291 30.9583 4.04166 30.9583H30.9583C32.1271 30.9583 33.0833 30.0021 33.0833 28.8333V4.04166H1.91666ZM21.0417 9.70832H13.9583C13.1756 9.70832 12.5417 9.07436 12.5417 8.29166C12.5417 7.50895 13.1756 6.87499 13.9583 6.87499H21.0417C21.8244 6.87499 22.4583 7.50895 22.4583 8.29166C22.4583 9.07436 21.8244 9.70832 21.0417 9.70832Z" fill="white"/>
</mask>
<g mask="url(#mask1_225_958)">
<path d="M21.0417 6.875H13.9583C13.1756 6.875 12.5417 7.50896 12.5417 8.29167C12.5417 9.07437 13.1756 9.70833 13.9583 9.70833H21.0417C21.8244 9.70833 22.4583 9.07437 22.4583 8.29167C22.4583 7.50896 21.8244 6.875 21.0417 6.875Z" fill="white"/>
</g>
<mask id="mask2_225_958" style="mask-type:luminance" maskUnits="userSpaceOnUse" x="1" y="4" width="33" height="27">
<path d="M1.91666 4.04166V28.8333C1.91666 30.0021 2.87291 30.9583 4.04166 30.9583H30.9583C32.1271 30.9583 33.0833 30.0021 33.0833 28.8333V4.04166H1.91666ZM21.0417 9.70832H13.9583C13.1756 9.70832 12.5417 9.07436 12.5417 8.29166C12.5417 7.50895 13.1756 6.87499 13.9583 6.87499H21.0417C21.8244 6.87499 22.4583 7.50895 22.4583 8.29166C22.4583 9.07436 21.8244 9.70832 21.0417 9.70832Z" fill="white"/>
</mask>
<g mask="url(#mask2_225_958)">
<mask id="mask3_225_958" style="mask-type:luminance" maskUnits="userSpaceOnUse" x="4" y="15" width="27" height="28">
<path d="M17.5 42.2917C24.9328 42.2917 30.9583 36.2662 30.9583 28.8333C30.9583 21.4005 24.9328 15.375 17.5 15.375C10.0672 15.375 4.04166 21.4005 4.04166 28.8333C4.04166 36.2662 10.0672 42.2917 17.5 42.2917Z" fill="white"/>
</mask>
<g mask="url(#mask3_225_958)">
<path d="M6.17906 15.375V31.8916H12.2017L17.5 22.7151H30.9583V15.375H6.17906ZM6.17906 15.375V31.8916H12.2017L17.5 22.7151H30.9583V15.375H6.17906Z" fill="#DB4437"/>
</g>
<mask id="mask4_225_958" style="mask-type:luminance" maskUnits="userSpaceOnUse" x="4" y="15" width="27" height="28">
<path d="M17.5 42.2917C24.9328 42.2917 30.9583 36.2662 30.9583 28.8333C30.9583 21.4005 24.9328 15.375 17.5 15.375C10.0672 15.375 4.04166 21.4005 4.04166 28.8333C4.04166 36.2662 10.0672 42.2917 17.5 42.2917Z" fill="white"/>
</mask>
<g mask="url(#mask4_225_958)">
<path d="M4.04166 42.2917H16.8519L22.7983 36.3452V31.8933L12.2017 31.8916L4.04166 17.8967V42.2917ZM4.04166 42.2917H16.8519L22.7983 36.3452V31.8933L12.2017 31.8916L4.04166 17.8967V42.2917Z" fill="#0F9D58"/>
</g>
<mask id="mask5_225_958" style="mask-type:luminance" maskUnits="userSpaceOnUse" x="4" y="15" width="27" height="28">
<path d="M17.5 42.2917C24.9328 42.2917 30.9583 36.2662 30.9583 28.8333C30.9583 21.4005 24.9328 15.375 17.5 15.375C10.0672 15.375 4.04166 21.4005 4.04166 28.8333C4.04166 36.2662 10.0672 42.2917 17.5 42.2917Z" fill="white"/>
</mask>
<g mask="url(#mask5_225_958)">
<path d="M17.5 22.7151L22.7983 31.8916L16.8536 42.2917H30.9583V22.7151H17.5ZM17.5 22.7151L22.7983 31.8916L16.8536 42.2917H30.9583V22.7151H17.5Z" fill="#FFCD40"/>
</g>
<mask id="mask6_225_958" style="mask-type:luminance" maskUnits="userSpaceOnUse" x="4" y="15" width="27" height="28">
<path d="M17.5 42.2917C24.9328 42.2917 30.9583 36.2662 30.9583 28.8333C30.9583 21.4005 24.9328 15.375 17.5 15.375C10.0672 15.375 4.04166 21.4005 4.04166 28.8333C4.04166 36.2662 10.0672 42.2917 17.5 42.2917Z" fill="white"/>
</mask>
<g mask="url(#mask6_225_958)">
<path d="M17.5 34.9516C20.879 34.9516 23.6182 32.2124 23.6182 28.8333C23.6182 25.4543 20.879 22.7151 17.5 22.7151C14.121 22.7151 11.3818 25.4543 11.3818 28.8333C11.3818 32.2124 14.121 34.9516 17.5 34.9516Z" fill="#F1F1F1"/>
<path d="M17.5 33.7279C20.2032 33.7279 22.3946 31.5365 22.3946 28.8333C22.3946 26.1301 20.2032 23.9388 17.5 23.9388C14.7968 23.9388 12.6054 26.1301 12.6054 28.8333C12.6054 31.5365 14.7968 33.7279 17.5 33.7279Z" fill="#4285F4"/>
</g>
</g>
<mask id="mask7_225_958" style="mask-type:luminance" maskUnits="userSpaceOnUse" x="1" y="4" width="33" height="27">
<path d="M1.91666 4.04166V28.8333C1.91666 30.0021 2.87291 30.9583 4.04166 30.9583H30.9583C32.1271 30.9583 33.0833 30.0021 33.0833 28.8333V4.04166H1.91666ZM21.0417 9.70832H13.9583C13.1756 9.70832 12.5417 9.07436 12.5417 8.29166C12.5417 7.50895 13.1756 6.87499 13.9583 6.87499H21.0417C21.8244 6.87499 22.4583 7.50895 22.4583 8.29166C22.4583 9.07436 21.8244 9.70832 21.0417 9.70832Z" fill="white"/>
</mask>
<g mask="url(#mask7_225_958)">
<path d="M1.91666 4.04166H33.0833V17.5H1.91666V4.04166Z" fill="#212121" fill-opacity="0.05"/>
</g>
<path d="M1.91666 17.3229H33.0833V17.5H1.91666V17.3229Z" fill="#212121" fill-opacity="0.02"/>
<path d="M1.91666 17.5H33.0833V17.6771H1.91666V17.5Z" fill="white" fill-opacity="0.05"/>
<path d="M21.0417 9.70832H13.9583C13.2057 9.70832 12.5912 9.12041 12.547 8.3802C12.5434 8.4103 12.5417 8.43864 12.5417 8.46874C12.5417 9.25145 13.1756 9.88541 13.9583 9.88541H21.0417C21.8244 9.88541 22.4583 9.25145 22.4583 8.46874C22.4583 8.43864 22.4566 8.4103 22.453 8.3802C22.4087 9.12041 21.7943 9.70832 21.0417 9.70832ZM1.91666 4.04166V4.21874H33.0833V4.04166H1.91666Z" fill="#212121" fill-opacity="0.02"/>
<path d="M13.9583 6.87499H21.0417C21.7943 6.87499 22.4087 7.46291 22.453 8.20311C22.4548 8.17301 22.4583 8.14468 22.4583 8.11457C22.4583 7.33186 21.8244 6.69791 21.0417 6.69791H13.9583C13.1756 6.69791 12.5417 7.33186 12.5417 8.11457C12.5417 8.14468 12.5434 8.17301 12.547 8.20311C12.5912 7.46291 13.2057 6.87499 13.9583 6.87499ZM30.9583 30.7812H4.04166C2.87291 30.7812 1.91666 29.825 1.91666 28.6562V28.8333C1.91666 30.0021 2.87291 30.9583 4.04166 30.9583H30.9583C32.1271 30.9583 33.0833 30.0021 33.0833 28.8333V28.6562C33.0833 29.825 32.1271 30.7812 30.9583 30.7812Z" fill="#231F20" fill-opacity="0.1"/>
<path d="M1.91666 4.04166V28.8333C1.91666 30.0021 2.87291 30.9583 4.04166 30.9583H30.9583C32.1271 30.9583 33.0833 30.0021 33.0833 28.8333V4.04166H1.91666ZM21.0417 9.70832H13.9583C13.1756 9.70832 12.5417 9.07436 12.5417 8.29166C12.5417 7.50895 13.1756 6.87499 13.9583 6.87499H21.0417C21.8244 6.87499 22.4583 7.50895 22.4583 8.29166C22.4583 9.07436 21.8244 9.70832 21.0417 9.70832Z" fill="url(#paint0_radial_225_958)"/>
</g>
<defs>
<radialGradient id="paint0_radial_225_958" cx="0" cy="0" r="1" gradientUnits="userSpaceOnUse" gradientTransform="translate(1.82848 3.92549) scale(40.3035 40.3035)">
<stop stop-color="white" stop-opacity="0.1"/>
<stop offset="1" stop-color="white" stop-opacity="0"/>
</radialGradient>
<clipPath id="clip0_225_958">
<rect width="34" height="34" fill="white" transform="translate(0.5 0.5)"/>
</clipPath>
</defs>
</svg>
