<svg width="35" height="35" viewBox="0 0 35 35" fill="none" xmlns="http://www.w3.org/2000/svg">
<g clip-path="url(#clip0_225_1003)">
<path d="M32.7643 11.9032C32.0486 10.1811 30.5968 8.3217 29.4599 7.73393C30.2708 9.30435 30.8335 10.9909 31.1281 12.7336L31.131 12.7613C29.2687 8.11813 26.1105 6.246 23.5312 2.1694C23.398 1.96158 23.2686 1.75131 23.1432 1.5387C23.0785 1.42765 23.018 1.31424 22.9617 1.1987C22.8547 0.991539 22.7723 0.7726 22.716 0.546328C22.7161 0.535887 22.7123 0.525783 22.7054 0.517945C22.6985 0.510106 22.689 0.505081 22.6786 0.503828C22.6685 0.501043 22.6578 0.501043 22.6476 0.503828C22.6455 0.503828 22.6421 0.507653 22.6395 0.508503C22.637 0.509353 22.6315 0.513178 22.6276 0.514878L22.634 0.503828C18.4966 2.92633 17.0929 7.41093 16.9637 9.65408C15.3114 9.76765 13.7317 10.3765 12.4306 11.4013C12.2949 11.2863 12.153 11.1787 12.0056 11.0791C11.6303 9.7654 11.6143 8.37507 11.9593 7.05308C10.4399 7.78915 9.0898 8.83257 7.99446 10.1173H7.98681C7.33401 9.28985 7.37991 6.56135 7.4173 5.99143C7.22418 6.06904 7.03984 6.16691 6.86736 6.2834C6.29107 6.6947 5.75234 7.15621 5.25746 7.66253C4.69352 8.23429 4.17847 8.85227 3.71768 9.51V9.51255V9.50958C2.65868 11.0109 1.90756 12.7072 1.50768 14.5004L1.48558 14.6092C1.42482 14.9509 1.37084 15.2938 1.32366 15.6377C1.32366 15.65 1.32111 15.6615 1.31983 15.6738C1.17564 16.4232 1.0863 17.1821 1.05251 17.9446V18.0296C1.05612 22.1539 2.60674 26.1268 5.39792 29.1631C8.18911 32.1995 12.0178 34.0783 16.1272 34.4283C20.2366 34.7783 24.3279 33.574 27.5923 31.0534C30.8568 28.5328 33.0569 24.8793 33.758 20.815C33.7856 20.6025 33.8081 20.3921 33.8328 20.1775C34.172 17.3735 33.8047 14.5291 32.7643 11.9032ZM13.7796 24.7968C13.8565 24.8338 13.9287 24.8738 14.0078 24.909L14.0193 24.9163C13.9394 24.878 13.8595 24.8382 13.7796 24.7968ZM31.1323 12.7651V12.7494L31.1353 12.7668L31.1323 12.7651Z" fill="url(#paint0_linear_225_1003)"/>
<path d="M32.7643 11.9032C32.0486 10.1811 30.5968 8.32169 29.4599 7.73392C30.2708 9.30434 30.8335 10.9909 31.1281 12.7336V12.7493L31.131 12.7668C32.4006 16.3999 32.217 20.3831 30.6185 23.8839C28.7306 27.9346 24.161 32.0864 17.0083 31.8845C9.27966 31.6657 2.47328 25.9307 1.20083 18.4193C0.969206 17.2348 1.20083 16.6343 1.31728 15.6716C1.15843 16.4194 1.06978 17.1803 1.05251 17.9445V18.0295C1.05612 22.1539 2.60674 26.1268 5.39792 29.1631C8.18911 32.1995 12.0178 34.0783 16.1272 34.4283C20.2366 34.7783 24.3279 33.574 27.5923 31.0534C30.8568 28.5328 33.0569 24.8793 33.758 20.815C33.7856 20.6025 33.8081 20.3921 33.8328 20.1775C34.172 17.3734 33.8047 14.5291 32.7643 11.9032Z" fill="url(#paint1_radial_225_1003)"/>
<path d="M32.7643 11.9032C32.0486 10.1811 30.5968 8.32169 29.4599 7.73392C30.2708 9.30434 30.8335 10.9909 31.1281 12.7336V12.7493L31.131 12.7668C32.4006 16.3999 32.217 20.3831 30.6185 23.8839C28.7306 27.9346 24.161 32.0864 17.0083 31.8845C9.27966 31.6657 2.47328 25.9307 1.20083 18.4193C0.969206 17.2348 1.20083 16.6343 1.31728 15.6716C1.15843 16.4194 1.06978 17.1803 1.05251 17.9445V18.0295C1.05612 22.1539 2.60674 26.1268 5.39792 29.1631C8.18911 32.1995 12.0178 34.0783 16.1272 34.4283C20.2366 34.7783 24.3279 33.574 27.5923 31.0534C30.8568 28.5328 33.0569 24.8793 33.758 20.815C33.7856 20.6025 33.8081 20.3921 33.8328 20.1775C34.172 17.3734 33.8047 14.5291 32.7643 11.9032Z" fill="url(#paint2_radial_225_1003)"/>
<path d="M24.7599 13.8395C24.7956 13.8645 24.8287 13.8896 24.8623 13.9147C24.4485 13.181 23.9335 12.5093 23.3323 11.9193C18.2127 6.79891 21.9906 0.81704 22.6276 0.513165L22.634 0.503815C18.4966 2.92631 17.0929 7.41091 16.9637 9.65406C17.1558 9.64089 17.3462 9.62474 17.5425 9.62474C19.0105 9.62743 20.4517 10.0188 21.7194 10.7591C22.9871 11.4994 24.0361 12.5622 24.7599 13.8395Z" fill="url(#paint3_radial_225_1003)"/>
<path d="M17.5531 14.862C17.5259 15.2717 16.0784 16.6849 15.5722 16.6849C10.8883 16.6849 10.1279 19.5183 10.1279 19.5183C10.3353 21.9043 11.9979 23.8695 14.0078 24.909C14.0992 24.9557 14.1919 24.9999 14.2857 25.0416C14.4469 25.113 14.6082 25.179 14.7694 25.2397C15.4591 25.4838 16.1816 25.6232 16.9126 25.6532C25.1224 26.0383 26.7127 15.8357 20.7882 12.8752C22.1859 12.6933 23.6012 13.037 24.7598 13.8395C24.0361 12.5622 22.9871 11.4994 21.7194 10.7591C20.4517 10.0188 19.0105 9.62745 17.5425 9.62476C17.347 9.62476 17.1557 9.64091 16.9636 9.65408C15.3114 9.76766 13.7317 10.3765 12.4306 11.4013C12.6818 11.6138 12.9652 11.8977 13.5624 12.4863C14.6801 13.5875 17.5467 14.7282 17.5531 14.862Z" fill="url(#paint4_radial_225_1003)"/>
<path d="M17.5531 14.862C17.5259 15.2717 16.0784 16.6849 15.5722 16.6849C10.8883 16.6849 10.1279 19.5183 10.1279 19.5183C10.3353 21.9043 11.9979 23.8695 14.0078 24.909C14.0992 24.9557 14.1919 24.9999 14.2857 25.0416C14.4469 25.113 14.6082 25.179 14.7694 25.2397C15.4591 25.4838 16.1816 25.6232 16.9126 25.6532C25.1224 26.0383 26.7127 15.8357 20.7882 12.8752C22.1859 12.6933 23.6012 13.037 24.7598 13.8395C24.0361 12.5622 22.9871 11.4994 21.7194 10.7591C20.4517 10.0188 19.0105 9.62745 17.5425 9.62476C17.347 9.62476 17.1557 9.64091 16.9636 9.65408C15.3114 9.76766 13.7317 10.3765 12.4306 11.4013C12.6818 11.6138 12.9652 11.8977 13.5624 12.4863C14.6801 13.5875 17.5467 14.7282 17.5531 14.862Z" fill="url(#paint5_radial_225_1003)"/>
<path d="M11.6626 10.8534C11.7774 10.9265 11.8907 11.0017 12.0026 11.0791C11.6273 9.7654 11.6113 8.37506 11.9563 7.05307C10.4369 7.78914 9.08681 8.83256 7.99147 10.1173C8.0718 10.1152 10.4611 10.0723 11.6626 10.8534Z" fill="url(#paint6_radial_225_1003)"/>
<path d="M1.20295 18.4193C2.47413 25.9307 9.28178 31.6657 17.0104 31.8845C24.1632 32.0868 28.7328 27.9346 30.6206 23.8839C32.2191 20.3831 32.4028 16.3999 31.1332 12.7668V12.751C31.1332 12.7387 31.1306 12.7315 31.1332 12.7353L31.1361 12.7629C31.7205 16.5782 29.78 20.2744 26.7463 22.7738L26.737 22.7951C20.8261 27.609 15.1693 25.6995 14.0244 24.9201C13.9445 24.8818 13.8646 24.842 13.7847 24.8006C10.3383 23.1533 8.91458 20.0134 9.21973 17.3206C8.40165 17.3327 7.59762 17.1073 6.90507 16.6717C6.21252 16.236 5.66116 15.6089 5.3178 14.8663C6.22247 14.312 7.25398 13.9987 8.31406 13.9562C9.37414 13.9136 10.4275 14.1432 11.3736 14.6232C13.3243 15.5087 15.5441 15.596 17.5582 14.8663C17.5519 14.7324 14.6852 13.5913 13.5675 12.4905C12.9704 11.9019 12.6869 11.6184 12.4357 11.4055C12.3 11.2905 12.1581 11.183 12.0107 11.0833C11.898 11.0071 11.7847 10.9319 11.6707 10.8577C10.4692 10.0765 8.07988 10.1194 8.00083 10.1216H7.99318C7.34038 9.29409 7.38628 6.56559 7.42368 5.99567C7.23056 6.07328 7.04621 6.17115 6.87373 6.28764C6.29745 6.69894 5.75871 7.16045 5.26383 7.66677C4.69788 8.23692 4.18069 8.85349 3.71768 9.50999V9.51254V9.50957C2.65868 11.0109 1.90756 12.7071 1.50768 14.5003C1.4996 14.5339 0.914379 17.0924 1.20295 18.4193Z" fill="url(#paint7_radial_225_1003)"/>
<path d="M23.3331 11.9193C23.9345 12.5099 24.4495 13.1824 24.8631 13.9168C24.9485 13.9804 25.0309 14.0479 25.11 14.1191C28.8445 17.5616 26.8878 22.4279 26.742 22.7743C29.7757 20.2748 31.7145 16.5786 31.1319 12.7634C29.2687 8.11813 26.1105 6.246 23.5312 2.1694C23.398 1.96158 23.2686 1.75131 23.1431 1.5387C23.0785 1.42765 23.0179 1.31424 22.9617 1.1987C22.8547 0.991539 22.7723 0.7726 22.716 0.546328C22.7161 0.535887 22.7123 0.525783 22.7054 0.517945C22.6985 0.510106 22.689 0.505081 22.6786 0.503828C22.6685 0.501043 22.6578 0.501043 22.6476 0.503828C22.6455 0.503828 22.6421 0.507653 22.6395 0.508503C22.637 0.509353 22.6314 0.513178 22.6276 0.514878C21.9905 0.817053 18.2127 6.79893 23.3331 11.9193Z" fill="url(#paint8_radial_225_1003)"/>
<path d="M25.1075 14.117C25.0284 14.0458 24.946 13.9783 24.8606 13.9147C24.827 13.8896 24.7938 13.8646 24.7581 13.8395C23.5995 13.037 22.1842 12.6933 20.7865 12.8752C26.711 15.8374 25.1215 26.0383 16.9109 25.6532C16.1799 25.6232 15.4574 25.4838 14.7677 25.2397C14.6065 25.1793 14.4452 25.1133 14.284 25.0416C14.1903 24.9998 14.0976 24.9555 14.0061 24.909L14.0175 24.9163C15.1625 25.6978 20.8175 27.6074 26.7301 22.7913L26.7395 22.77C26.887 22.4258 28.8437 17.5582 25.1075 14.117Z" fill="url(#paint9_radial_225_1003)"/>
<path d="M10.1279 19.5183C10.1279 19.5183 10.8883 16.6849 15.5722 16.6849C16.0784 16.6849 17.5272 15.2717 17.5531 14.862C15.5389 15.5917 13.3192 15.5045 11.3685 14.6189C10.4223 14.139 9.36903 13.9094 8.30896 13.9519C7.24888 13.9945 6.21736 14.3078 5.3127 14.862C5.65605 15.6047 6.20741 16.2318 6.89996 16.6674C7.59252 17.103 8.39654 17.3285 9.21462 17.3164C8.90947 20.0096 10.3332 23.1495 13.7795 24.7964C13.8565 24.8334 13.9287 24.8733 14.0078 24.9086C11.9962 23.8695 10.3353 21.9043 10.1279 19.5183Z" fill="url(#paint10_radial_225_1003)"/>
<path d="M32.7643 11.9032C32.0486 10.1811 30.5968 8.3217 29.4599 7.73393C30.2708 9.30435 30.8335 10.9909 31.1281 12.7336L31.131 12.7613C29.2687 8.11813 26.1105 6.246 23.5312 2.1694C23.398 1.96158 23.2686 1.75131 23.1432 1.5387C23.0785 1.42765 23.018 1.31424 22.9617 1.1987C22.8547 0.991539 22.7723 0.7726 22.716 0.546328C22.7161 0.535887 22.7123 0.525783 22.7054 0.517945C22.6985 0.510106 22.689 0.505081 22.6786 0.503828C22.6685 0.501043 22.6578 0.501043 22.6476 0.503828C22.6455 0.503828 22.6421 0.507653 22.6395 0.508503C22.637 0.509353 22.6315 0.513178 22.6276 0.514878L22.634 0.503828C18.4966 2.92633 17.0929 7.41093 16.9637 9.65408C17.1558 9.6409 17.3462 9.62475 17.5425 9.62475C19.0105 9.62744 20.4517 10.0188 21.7194 10.7591C22.9871 11.4994 24.0361 12.5622 24.7599 13.8395C23.6012 13.037 22.1859 12.6933 20.7882 12.8752C26.7127 15.8374 25.1232 26.0383 16.9127 25.6532C16.1816 25.6232 15.4591 25.4838 14.7694 25.2397C14.6082 25.1793 14.4469 25.1133 14.2857 25.0416C14.192 24.9998 14.0993 24.9555 14.0078 24.909L14.0193 24.9163C13.9394 24.878 13.8595 24.8382 13.7796 24.7968C13.8565 24.8338 13.9287 24.8738 14.0078 24.909C11.9963 23.8695 10.3354 21.9043 10.128 19.5183C10.128 19.5183 10.8883 16.6849 15.5722 16.6849C16.0784 16.6849 17.5272 15.2717 17.5531 14.862C17.5468 14.7282 14.6801 13.587 13.5624 12.4863C12.9653 11.8977 12.6818 11.6142 12.4306 11.4013C12.2949 11.2863 12.153 11.1787 12.0056 11.0791C11.6303 9.7654 11.6143 8.37507 11.9593 7.05308C10.4399 7.78915 9.0898 8.83257 7.99446 10.1173H7.98681C7.33401 9.28985 7.37991 6.56135 7.4173 5.99143C7.22418 6.06904 7.03984 6.16691 6.86736 6.2834C6.29107 6.6947 5.75234 7.15621 5.25746 7.66253C4.69352 8.23429 4.17847 8.85227 3.71768 9.51V9.51255V9.50958C2.65868 11.0109 1.90756 12.7072 1.50768 14.5004L1.48558 14.6092C1.45456 14.7541 1.31558 15.4902 1.29561 15.6483C1.29561 15.636 1.29561 15.6602 1.29561 15.6483C1.16849 16.4081 1.08731 17.1749 1.05251 17.9446V18.0296C1.05612 22.1539 2.60674 26.1268 5.39792 29.1631C8.18911 32.1995 12.0178 34.0783 16.1272 34.4283C20.2366 34.7783 24.3279 33.574 27.5923 31.0534C30.8568 28.5328 33.0569 24.8793 33.758 20.815C33.7856 20.6025 33.8081 20.3921 33.8328 20.1775C34.172 17.3735 33.8047 14.5291 32.7643 11.9032Z" fill="url(#paint11_linear_225_1003)"/>
</g>
<defs>
<linearGradient id="paint0_linear_225_1003" x1="2871.83" y1="527.285" x2="227.682" y2="3078.94" gradientUnits="userSpaceOnUse">
<stop offset="0.05" stop-color="#FFF44F"/>
<stop offset="0.37" stop-color="#FF980E"/>
<stop offset="0.53" stop-color="#FF3647"/>
<stop offset="0.7" stop-color="#E31587"/>
</linearGradient>
<radialGradient id="paint1_radial_225_1003" cx="0" cy="0" r="1" gradientUnits="userSpaceOnUse" gradientTransform="translate(2301.59 -337.335) scale(3369.26 3424.49)">
<stop offset="0.13" stop-color="#FFBD4F"/>
<stop offset="0.28" stop-color="#FF980E"/>
<stop offset="0.47" stop-color="#FF3750"/>
<stop offset="0.78" stop-color="#EB0878"/>
<stop offset="0.86" stop-color="#E50080"/>
</radialGradient>
<radialGradient id="paint2_radial_225_1003" cx="0" cy="0" r="1" gradientUnits="userSpaceOnUse" gradientTransform="translate(1323.03 1077.89) scale(3453.49 3424.49)">
<stop offset="0.3" stop-color="#960E18"/>
<stop offset="0.35" stop-color="#B11927" stop-opacity="0.74"/>
<stop offset="0.43" stop-color="#DB293D" stop-opacity="0.34"/>
<stop offset="0.5" stop-color="#F5334B" stop-opacity="0.09"/>
<stop offset="0.53" stop-color="#FF3750" stop-opacity="0"/>
</radialGradient>
<radialGradient id="paint3_radial_225_1003" cx="0" cy="0" r="1" gradientUnits="userSpaceOnUse" gradientTransform="translate(396.098 -160.427) scale(1105.81 1877.52)">
<stop offset="0.13" stop-color="#FFF44F"/>
<stop offset="0.53" stop-color="#FF980E"/>
</radialGradient>
<radialGradient id="paint4_radial_225_1003" cx="0" cy="0" r="1" gradientUnits="userSpaceOnUse" gradientTransform="translate(343.15 1775.69) scale(1463.19 1603.91)">
<stop offset="0.35" stop-color="#3A8EE6"/>
<stop offset="0.67" stop-color="#9059FF"/>
<stop offset="1" stop-color="#C139E6"/>
</radialGradient>
<radialGradient id="paint5_radial_225_1003" cx="0" cy="0" r="1" gradientUnits="userSpaceOnUse" gradientTransform="translate(693.938 538.914) scale(776.954 946.305)">
<stop offset="0.21" stop-color="#9059FF" stop-opacity="0"/>
<stop offset="0.97" stop-color="#6E008B" stop-opacity="0.6"/>
</radialGradient>
<radialGradient id="paint6_radial_225_1003" cx="0" cy="0" r="1" gradientUnits="userSpaceOnUse" gradientTransform="translate(850.333 -395.549) scale(1163.23 1167.55)">
<stop offset="0.1" stop-color="#FFE226"/>
<stop offset="0.79" stop-color="#FF7139"/>
</radialGradient>
<radialGradient id="paint7_radial_225_1003" cx="0" cy="0" r="1" gradientUnits="userSpaceOnUse" gradientTransform="translate(2592.12 -1055.74) scale(5552.14 4661.28)">
<stop offset="0.11" stop-color="#FFF44F"/>
<stop offset="0.46" stop-color="#FF980E"/>
<stop offset="0.72" stop-color="#FF3647"/>
<stop offset="0.9" stop-color="#E31587"/>
</radialGradient>
<radialGradient id="paint8_radial_225_1003" cx="0" cy="0" r="1" gradientUnits="userSpaceOnUse" gradientTransform="translate(432.338 68.8463) rotate(77.3946) scale(1762 7623.16)">
<stop stop-color="#FFF44F"/>
<stop offset="0.3" stop-color="#FF980E"/>
<stop offset="0.57" stop-color="#FF3647"/>
<stop offset="0.74" stop-color="#E31587"/>
</radialGradient>
<radialGradient id="paint9_radial_225_1003" cx="0" cy="0" r="1" gradientUnits="userSpaceOnUse" gradientTransform="translate(266.818 -545.03) scale(3188.9 3129.25)">
<stop offset="0.14" stop-color="#FFF44F"/>
<stop offset="0.48" stop-color="#FF980E"/>
<stop offset="0.66" stop-color="#FF3647"/>
<stop offset="0.9" stop-color="#E31587"/>
</radialGradient>
<radialGradient id="paint10_radial_225_1003" cx="0" cy="0" r="1" gradientUnits="userSpaceOnUse" gradientTransform="translate(1955.21 -476.259) scale(3832.48 3432.1)">
<stop offset="0.09" stop-color="#FFF44F"/>
<stop offset="0.63" stop-color="#FF980E"/>
</radialGradient>
<linearGradient id="paint11_linear_225_1003" x1="2633.28" y1="476.306" x2="518.99" y2="2787.34" gradientUnits="userSpaceOnUse">
<stop offset="0.17" stop-color="#FFF44F" stop-opacity="0.8"/>
<stop offset="0.6" stop-color="#FFF44F" stop-opacity="0"/>
</linearGradient>
<clipPath id="clip0_225_1003">
<rect width="33.575" height="34" fill="white" transform="translate(0.5 0.5)"/>
</clipPath>
</defs>
</svg>
